<svg xmlns="http://www.w3.org/2000/svg" viewBox="0 0 512 512" width="512" height="512">
  <!-- Dark navy background with rounded corners -->
  <rect width="512" height="512" rx="64" ry="64" fill="#181C28"/>

  <!-- Subtle baseline -->
  <line x1="20" y1="296" x2="492" y2="296" stroke="#2a3048" stroke-width="1"/>

  <!-- F1 200 Hz - Blue - widest envelope, gentle sidelobes -->
  <polyline fill="none" stroke="#5898E0" stroke-width="2.5" stroke-linecap="round" stroke-linejoin="round"
    points="
      20,296
      30,296 40,296 50,295 60,295 70,294 80,293
      90,291 100,289 110,286 120,283 130,279 140,275
      150,270 155,268 160,266 165,264 170,262 175,261
      180,262 185,264 190,267 195,271 200,275 205,279
      210,282 215,284 220,285 225,284 230,281
      235,276 240,268 245,256 250,240 253,228
      256,180
      259,228 262,240 267,256 272,268 277,276
      282,281 287,284 292,285 297,284 302,282
      307,279 312,275 317,271 322,267 327,264
      332,262 337,261 342,262 347,264 352,266
      357,268 362,270
      372,275 382,279 392,283 402,286 412,289
      422,291 432,293 442,294 452,295 462,295
      472,296 482,296 492,296
    "/>

  <!-- F2 800 Hz - Orange - medium envelope, medium sidelobes -->
  <polyline fill="none" stroke="#E07040" stroke-width="2.5" stroke-linecap="round" stroke-linejoin="round"
    points="
      80,296
      100,296 110,296 120,295 130,295
      140,294 148,294 152,295 156,296 160,297
      164,297 168,296 172,295 176,293 180,292
      184,291 188,291 192,292 196,294 200,296
      204,297 206,297 208,296 210,294 212,291
      216,286 220,280 224,272 228,262 232,252
      236,244 240,238 244,236 248,240 250,246
      253,255 256,232
      259,255 262,246 264,240 268,236
      272,238 276,244 280,252 284,262 288,272
      292,280 296,286 300,291 302,294 304,296
      306,297 308,297
      312,294 316,292 320,291 324,291 328,292
      332,293 336,295 340,296 344,297 348,297
      352,296 356,295 360,294 364,294
      372,294 382,295 392,295 402,296
      412,296 432,296
    "/>

  <!-- F3 2000 Hz - Green - narrowest envelope, tight sidelobes -->
  <polyline fill="none" stroke="#50D868" stroke-width="2.5" stroke-linecap="round" stroke-linejoin="round"
    points="
      160,296
      180,296 190,296 200,296 210,296
      214,296 218,295 220,295 222,296 224,297
      226,297 228,296 230,295 232,294 234,294
      236,295 238,296 240,297 241,297 242,296
      243,294 244,292 246,288 248,284 250,278
      252,272 254,268 255,266 256,268
      257,266 258,268 260,272 262,278
      264,284 266,288 268,292 269,294 270,296
      271,297 272,296 274,295 276,294 278,294
      280,295 282,296 284,297 286,297 288,296
      290,295 292,296 294,296
      300,296 310,296 320,296 340,296 352,296
    "/>
</svg>
